<svg width="40" height="41" viewBox="0 0 40 41" fill="none" xmlns="http://www.w3.org/2000/svg">
<circle cx="20" cy="20" r="20" fill="#FC7991"/>
<path d="M15.0781 6.79688C15.224 7.19271 15.401 7.78646 15.6094 8.57812C15.8177 9.35938 16.0469 10.2656 16.2969 11.2969C16.5469 12.3281 16.8073 13.4479 17.0781 14.6562C17.3594 15.8646 17.6354 17.0938 17.9062 18.3438C18.1875 19.5938 18.4583 20.8281 18.7188 22.0469C18.9896 23.2656 19.2396 24.3958 19.4688 25.4375C19.6979 26.4792 19.901 27.4062 20.0781 28.2188C20.2656 29.0208 20.4115 29.6354 20.5156 30.0625C20.7448 29.4792 21.0104 28.7604 21.3125 27.9062C21.625 27.0521 21.9583 26.1198 22.3125 25.1094C22.6771 24.0885 23.0521 23.0104 23.4375 21.875C23.8333 20.7292 24.2292 19.5781 24.625 18.4219C25.0312 17.2552 25.4375 16.1042 25.8438 14.9688C26.25 13.8333 26.6406 12.7604 27.0156 11.75C27.3906 10.7292 27.7448 9.79688 28.0781 8.95312C28.4219 8.09896 28.7292 7.38021 29 6.79688L30.2812 6.95312C30.0938 7.60938 29.9062 8.375 29.7188 9.25C29.5312 10.1146 29.349 11.0573 29.1719 12.0781C29.0052 13.0885 28.8438 14.1562 28.6875 15.2812C28.5312 16.3958 28.3958 17.5208 28.2812 18.6562C28.1667 19.7917 28.0729 20.9167 28 22.0312C27.9375 23.1458 27.9062 24.2083 27.9062 25.2188C27.9062 27.1875 28.0469 28.6823 28.3281 29.7031C28.6094 30.724 29.0469 31.2344 29.6406 31.2344C29.901 31.2344 30.151 31.1302 30.3906 30.9219C30.6406 30.7135 30.901 30.401 31.1719 29.9844C31.4531 29.5677 31.75 29.0521 32.0625 28.4375C32.3854 27.8125 32.75 27.0938 33.1562 26.2812L33.3125 25.9531L33.9531 26.4375L33.7969 26.7656C33.276 27.8073 32.8073 28.7188 32.3906 29.5C31.9844 30.2708 31.5885 30.9167 31.2031 31.4375C30.8281 31.9583 30.4479 32.349 30.0625 32.6094C29.6875 32.8698 29.276 33 28.8281 33C28.2031 33 27.6823 32.849 27.2656 32.5469C26.849 32.2344 26.5104 31.7969 26.25 31.2344C26 30.6615 25.8177 29.9688 25.7031 29.1562C25.599 28.3438 25.5469 27.4271 25.5469 26.4062C25.5469 25.2917 25.6042 24.125 25.7188 22.9062C25.8333 21.6771 25.9688 20.4844 26.125 19.3281C26.2917 18.1719 26.4583 17.1042 26.625 16.125C26.8021 15.1354 26.9531 14.3177 27.0781 13.6719L20.0312 33.7969L18.75 33.4844C18.75 33.2656 18.6823 32.8021 18.5469 32.0938C18.4115 31.375 18.2344 30.5104 18.0156 29.5C17.7969 28.4792 17.5469 27.3594 17.2656 26.1406C16.9948 24.9115 16.7135 23.6771 16.4219 22.4375C15.7448 19.5208 14.974 16.2812 14.1094 12.7188C14.1406 13.4688 14.1771 14.224 14.2188 14.9844C14.25 15.6406 14.276 16.3438 14.2969 17.0938C14.3281 17.8333 14.3438 18.526 14.3438 19.1719C14.3438 21.0573 14.2344 22.7292 14.0156 24.1875C13.8073 25.6458 13.5208 26.9167 13.1562 28C12.7917 29.0729 12.3646 29.9792 11.875 30.7188C11.3854 31.4583 10.8646 32.0521 10.3125 32.5C9.76042 32.9479 9.19271 33.2708 8.60938 33.4688C8.03646 33.6667 7.47396 33.7656 6.92188 33.7656C6.36979 33.7656 5.85417 33.6719 5.375 33.4844C4.88542 33.3073 4.46354 33.0573 4.10938 32.7344C3.74479 32.401 3.45833 32.0156 3.25 31.5781C3.03125 31.1302 2.92188 30.6458 2.92188 30.125C2.92188 29.5104 3.02604 28.9219 3.23438 28.3594C3.43229 27.7969 3.71354 27.2708 4.07812 26.7812C4.43229 26.2812 4.85417 25.8177 5.34375 25.3906C5.83333 24.9635 6.35938 24.5677 6.92188 24.2031L7.39062 24.6875C6.99479 24.9688 6.63021 25.2865 6.29688 25.6406C5.96354 25.9844 5.67708 26.3594 5.4375 26.7656C5.19792 27.1615 5.01042 27.5781 4.875 28.0156C4.73958 28.4427 4.67188 28.875 4.67188 29.3125C4.67188 29.7188 4.73958 30.099 4.875 30.4531C5 30.8073 5.1875 31.1198 5.4375 31.3906C5.67708 31.6615 5.96875 31.875 6.3125 32.0312C6.64583 32.1875 7.02604 32.2656 7.45312 32.2656C7.89062 32.2656 8.34375 32.1771 8.8125 32C9.28125 31.8125 9.73438 31.5104 10.1719 31.0938C10.6198 30.6667 11.0417 30.1094 11.4375 29.4219C11.8438 28.724 12.1927 27.8698 12.4844 26.8594C12.7865 25.8385 13.026 24.6458 13.2031 23.2812C13.3802 21.9167 13.4688 20.3438 13.4688 18.5625C13.4688 18.0521 13.4531 17.4531 13.4219 16.7656C13.401 16.0781 13.3646 15.3594 13.3125 14.6094C13.2708 13.8594 13.2188 13.1094 13.1562 12.3594C13.0938 11.599 13.026 10.8958 12.9531 10.25C12.8906 9.59375 12.8177 9.02083 12.7344 8.53125C12.6615 8.03125 12.5885 7.66667 12.5156 7.4375L15.0781 6.79688Z" fill="white"/>
</svg>
